<svg xmlns="http://www.w3.org/2000/svg" width="252.15" height="100" viewBox="0 0 166.58 66.064">
  <g id="Grupo_22" data-name="Grupo 22" transform="translate(-581.42 -819)">
    <text id="reen_finder" data-name="reen finder" transform="translate(628 827)" fill="#fff" font-size="24" font-family="ChalkboardSE-Regular, Chalkboard SE"><tspan x="0" y="27">reen finder</tspan></text>
    <g id="Grupo_21" data-name="Grupo 21" transform="translate(11 4)">
      <path id="Trazado_26" data-name="Trazado 26" d="M411.253,291.47l9.614,17.64a3.51,3.51,0,0,0,4.942,1.4h0a3.959,3.959,0,0,0,1.324-5.236l-9.614-17.64Z" transform="translate(186.691 570.038)" fill="#fff"/>
      <path id="Exclusión_1" data-name="Exclusión 1" d="M22.026,44.339A21.885,21.885,0,0,1,6.451,37.846a22.245,22.245,0,0,1,0-31.352,22.04,22.04,0,0,1,37.6,15.676A22.176,22.176,0,0,1,30.6,42.6,21.764,21.764,0,0,1,22.026,44.339ZM22.17,6.568A15.6,15.6,0,1,0,33.2,11.138,15.5,15.5,0,0,0,22.17,6.568Z" transform="translate(570.42 820.873)" fill="#fff"/>
    </g>
    <text id="G" transform="translate(591 859)" fill="#fff" font-size="35" font-family="ChalkboardSE-Bold, Chalkboard SE" font-weight="700"><tspan x="0" y="0">G</tspan></text>
  </g>
</svg>
