<svg id="_x33_0" enable-background="new 0 0 64 64" height="512" viewBox="0 0 64 64" width="512" xmlns="http://www.w3.org/2000/svg"><path d="m62 13c0 6-7 10-13 10h-.4c.28-1.84.4-3.55.4-5 0-2.15-.74-4.67-2.23-6.85l.23-.15c3-6 13-9 13-9s2 6 2 11z" fill="#a0d468"/><path d="m46.77 11.15c-1.95-2.88-5.21-5.15-9.77-5.15-7 0-11 2-11 2s4.98 15.94 18.92 16c-.42 2.57-2.38 6.44-6.82 9.01 2 .09 4.9 2.99 4.9 2.99l.25.2c2.84-3.5 4.42-8.08 5.18-12.2.06-.34.12-.67.17-1 .28-1.84.4-3.55.4-5 0-2.15-.74-4.67-2.23-6.85z" fill="#b4dd7f"/><path d="m33.8 34.79c.53-.14 1.04-.31 1.53-.49 1.19 1.07 3.62 2.94 3.67 5.62-1.96 1.16-4.26 1.9-6.97 2.05-.33.02-.68.03-1.03.03l-.62.22c-.11-.33-.23-.65-.35-.95-.49-1.24-.99-2.24-1.03-3.27 0-3 2.93-2.75 4-3 .27-.06.54-.13.8-.21z" fill="#b4dd7f"/><path d="m43 36 .25.2c-1.19 1.46-2.59 2.74-4.25 3.72-.05-2.68-2.48-4.55-3.67-5.62 1.01-.37 1.94-.81 2.77-1.29 2 .09 4.9 2.99 4.9 2.99z" fill="#e6e9ed"/><path d="m30.38 42.22.62-.22c.35 0 .7-.01 1.03-.03l2.97.03v5c0 6-3 15-21 15-.68 0-1.35-.01-2-.04-.01-6.98-3.01-12.96-9-14.96l-.05-.02c4.06-11.96 19.97-14.98 26.05-14.98 2.8 0 3.86 1.75 4.8 2.79-.26.08-.53.15-.8.21-1.07.25-4 0-4 3 .04 1.03.54 2.03 1.03 3.27.12.3.24.62.35.95z" fill="#cf9e76"/><path d="m8 61-.07.69c-.73-.08-1.4-.15-2-.23-1.77-.23-3.17-1.61-3.44-3.38-.24-1.62-.49-3.59-.49-5.08 0-1.02.07-1.99.21-2.92 2.93 1.06 5.79 4.08 5.79 10.92z" fill="#cf9e76"/><path d="m12 61.96c-1.48-.05-2.86-.15-4.07-.27l.07-.69c0-6.84-2.86-9.86-5.79-10.92.16-1.09.41-2.13.74-3.1l.05.02c5.99 2 8.99 7.98 9 14.96z" fill="#b27946"/><path d="m63 13c0-5.104-1.968-11.065-2.051-11.316l-.307-.92-.929.279c-.4.12-9.276 2.84-12.964 8.408-2.142-2.552-5.365-4.451-9.749-4.451-7.154 0-11.275 2.02-11.447 2.105l-.761.381.254.812c.053.17 1.337 4.211 4.405 8.302 3.814 5.086 8.706 7.948 14.21 8.346-.887 2.861-3.644 6.853-9.524 8.7-.912-1.08-2.288-2.646-5.137-2.646-3.201 0-10.299.894-16.595 4.242-7.461 3.969-11.405 10.11-11.405 17.758 0 1.284.17 3.045.505 5.232.337 2.199 2.104 3.934 4.296 4.218 1.929.251 4.917.55 8.199.55 19.142 0 22-10.024 22-16v-4.709c4.282-1.272 7.775-4.252 10.249-8.815 1.762-3.25 2.7-6.659 3.198-9.495 6.502-.196 13.553-4.643 13.553-10.981zm-25.067 26.379c-2.045 1.078-4.359 1.621-6.933 1.621v.007c-.108-.277-.216-.546-.32-.799-.351-.854-.654-1.591-.68-2.208 0-1.385.721-1.695 2.444-1.904.306-.037.577-.073.787-.123.654-.155 1.271-.338 1.868-.537 1.063.929 2.528 2.258 2.834 3.943zm-34.336 8.921c4.397 1.911 7.088 6.515 7.372 12.615-.693-.037-1.354-.083-1.977-.136-.065-7.222-3.215-10.143-5.662-11.316.077-.394.166-.781.267-1.163zm-.116 9.63c-.314-2.059-.481-3.763-.481-4.93 0-.478.02-.947.053-1.41 2.476 1.514 3.854 4.636 3.938 8.991-.33-.038-.646-.076-.932-.113-1.335-.174-2.371-1.194-2.578-2.538zm30.519-10.93c0 6.387-3.47 14-20 14-.347 0-.689-.005-1.029-.011-.28-7.051-3.479-12.391-8.735-14.585 1.561-3.848 4.6-6.998 9.109-9.396 5.947-3.164 12.639-4.008 15.655-4.008 1.392 0 2.226.508 2.889 1.151-1.374.185-3.889.728-3.888 3.891.042 1.01.424 1.941.829 2.927.548 1.334 1.17 2.847 1.17 5.031 0 5.393-3.456 8.09-3.6 8.2l1.2 1.6c.18-.135 4.4-3.374 4.4-9.8 0-1.155-.151-2.144-.366-3.02.81-.027 1.599-.104 2.366-.231zm5.703-8.74c-.501-1.537-1.569-2.744-2.537-3.65.388-.18.765-.367 1.124-.565.991.193 2.505 1.283 3.567 2.248-.673.743-1.391 1.399-2.154 1.967zm4.787-5.737c-.43.793-.893 1.525-1.382 2.208-.625-.56-1.645-1.399-2.754-2.002 4.017-3.016 5.646-7.094 5.646-9.729 0-2.018 0-3.236-1.105-5.447-.925-1.85-2.484-3.285-4.164-4.39-.258-.668-.731-2.161-.731-4.163h-2c0 1.063.121 1.996.279 2.792-2.584-1.222-4.887-1.731-5.071-1.77l-.416 1.956c.058.013 4.306.949 7.501 3.312-1.745.295-3.427.712-3.536.739l.485 1.94c.033-.008 2.947-.732 4.928-.923.36.436.683.898.935 1.4.89 1.78.895 2.592.895 4.523-10.575-.638-15.51-11.29-16.734-14.414 1.46-.545 4.828-1.555 9.734-1.555 7.504 0 11 6.564 11 11 0 3.891-.922 9.749-3.51 14.523zm5.254-10.553c.114-.945.178-1.779.214-2.468.411-.352 1.167-1.026 2.093-1.98 2.925-1.84 5.487-2.522 6.949-2.522v-2c-1.106 0-2.392.265-3.747.738.932-1.272 1.851-2.71 2.641-4.291l-1.789-.895c-.93 1.86-2.066 3.523-3.179 4.929.052-1.295-.182-2.734-1.063-4.041l-1.658 1.118c1.664 2.467-.047 5.957-.064 5.992l.032.016c-.085.085-.165.163-.246.242-.196-1.79-.83-3.756-1.913-5.569 2.351-4.376 8.883-7.08 11.333-7.963.544 1.865 1.653 6.104 1.653 9.724 0 5.073-5.786 8.667-11.256 8.97z"/><path d="m9.287 42.299 1.426 1.402c.996-1.012 2.2-1.913 3.79-2.837l-1.005-1.729c-1.748 1.015-3.086 2.02-4.211 3.164z"/><path d="m15.578 38.094.845 1.812c2.05-.955 4.185-1.536 5.815-1.935l-.476-1.943c-1.719.421-3.976 1.036-6.184 2.066z"/></svg>